<svg width="50" height="32" viewBox="0 0 50 32" fill="none" xmlns="http://www.w3.org/2000/svg">
<g id="ApplePay" clip-path="url(#clip0_1_6185)">
<g id="ApplePay_2">
<rect id="Rectangle" width="50" height="32" rx="3" fill="#EDEDF0"/>
<path id="Path" d="M12.9433 10.1931C12.498 10.7216 11.7854 11.1385 11.0728 11.079C10.9837 10.3643 11.3326 9.60493 11.7408 9.13591C12.1862 8.59244 12.9656 8.20532 13.5965 8.17554C13.6707 8.92001 13.3813 9.6496 12.9433 10.1931ZM13.5891 11.2204C12.5573 11.1609 11.674 11.8086 11.1841 11.8086C10.6868 11.8086 9.93711 11.2502 9.12061 11.2651C8.05916 11.28 7.07194 11.883 6.53008 12.8434C5.41667 14.7641 6.2406 17.608 7.31689 19.1714C7.8439 19.9457 8.47484 20.7944 9.30618 20.7646C10.093 20.7348 10.4047 20.2509 11.3549 20.2509C12.3124 20.2509 12.587 20.7646 13.4184 20.7497C14.2794 20.7348 14.8213 19.9755 15.3483 19.2012C15.9495 18.3227 16.1945 17.4666 16.2093 17.4219C16.1945 17.407 14.5466 16.7742 14.5318 14.8684C14.5169 13.2752 15.8308 12.5158 15.8901 12.4712C15.1479 11.3693 13.9899 11.2502 13.5891 11.2204ZM19.5495 9.06146V20.6678H21.3458V16.6998H23.8325C26.1038 16.6998 27.6997 15.1364 27.6997 12.8732C27.6997 10.61 26.1335 9.06146 23.8918 9.06146H19.5495ZM21.3458 10.5802H23.4168C24.9756 10.5802 25.8663 11.414 25.8663 12.8806C25.8663 14.3472 24.9756 15.1885 23.4094 15.1885H21.3458V10.5802ZM30.9805 20.7572C32.1088 20.7572 33.1554 20.1839 33.6305 19.2756H33.6676V20.6678H35.3303V14.8907C35.3303 13.2156 33.9942 12.1361 31.9381 12.1361C30.0304 12.1361 28.6201 13.2305 28.5682 14.7344H30.1863C30.3199 14.0197 30.9805 13.5506 31.8861 13.5506C32.9847 13.5506 33.6008 14.0643 33.6008 15.0098V15.6501L31.3591 15.7841C29.2733 15.9106 28.1451 16.7668 28.1451 18.2557C28.1451 19.7596 29.3104 20.7572 30.9805 20.7572ZM31.463 19.3799C30.5055 19.3799 29.8968 18.9183 29.8968 18.2111C29.8968 17.4815 30.4832 17.0571 31.604 16.9901L33.6008 16.8636V17.5187C33.6008 18.6056 32.6803 19.3799 31.463 19.3799ZM37.5497 23.8244C39.3014 23.8244 40.1253 23.1544 40.8453 21.1219L44 12.2478H42.174L40.0585 19.1044H40.0214L37.9059 12.2478H36.028L39.0713 20.6976L38.908 21.2113C38.6334 22.0823 38.188 22.4173 37.3938 22.4173C37.2527 22.4173 36.9781 22.4024 36.8668 22.3876V23.7797C36.9707 23.8095 37.416 23.8244 37.5497 23.8244Z" fill="#888888"/>
</g>
</g>
<defs>
<clipPath id="clip0_1_6185">
<rect width="50" height="32" fill="white"/>
</clipPath>
</defs>
</svg>
