<svg width="50" height="32" viewBox="0 0 50 32" fill="none" xmlns="http://www.w3.org/2000/svg">
<g id="Bitcoin" clip-path="url(#clip0_1_6169)">
<g id="Bitcoin_2">
<rect id="Rectangle" width="50" height="32" rx="3" fill="#EDEDF0"/>
<g id="Group">
<g id="Group_2">
<path id="Vector" d="M14.3311 22.531C14.6312 22.531 14.8906 22.5848 15.1085 22.6904C15.3274 22.7971 15.5081 22.9407 15.653 23.1214C15.796 23.303 15.9024 23.5153 15.9711 23.7585C16.0394 24.0025 16.0736 24.2647 16.0736 24.5454C16.0736 24.9766 15.9946 25.384 15.8351 25.768C15.6756 26.1526 15.4592 26.4862 15.1839 26.7708C14.9088 27.055 14.584 27.279 14.2095 27.4446C13.8355 27.6102 13.429 27.693 12.9924 27.693C12.936 27.693 12.8367 27.6914 12.6965 27.6885C12.5563 27.6856 12.3952 27.6711 12.2148 27.6467C12.0332 27.6214 11.8412 27.5839 11.6384 27.5337C11.4357 27.4845 11.2433 27.4154 11.062 27.3277L12.6828 20.5176L14.1344 20.2926L13.5541 22.7093C13.6783 22.6533 13.8035 22.6099 13.9284 22.5783C14.0534 22.5472 14.1876 22.531 14.3311 22.531ZM13.1134 26.5414C13.332 26.5414 13.538 26.4876 13.7315 26.382C13.9256 26.2763 14.0931 26.1336 14.2334 25.9558C14.3737 25.7772 14.4848 25.576 14.5657 25.3513C14.6467 25.1265 14.6877 24.8921 14.6877 24.6481C14.6877 24.3484 14.6376 24.1147 14.5378 23.9457C14.4379 23.7774 14.2532 23.6927 13.985 23.6927C13.8971 23.6927 13.7838 23.7095 13.6434 23.7394C13.5025 23.7712 13.3764 23.8373 13.2634 23.9366L12.6455 26.5031C12.6828 26.5097 12.7157 26.516 12.7438 26.5219C12.7714 26.5282 12.8018 26.5327 12.8321 26.5359C12.8641 26.5394 12.9008 26.5413 12.9451 26.5413C12.9894 26.5413 13.0448 26.5414 13.1134 26.5414Z" fill="#4D4D4D"/>
<path id="Vector_2" d="M17.579 27.5631H16.1925L17.3634 22.6359H18.7594L17.579 27.5631ZM18.2537 22.0356C18.0602 22.0356 17.8847 21.978 17.7291 21.8626C17.5721 21.7478 17.4944 21.5712 17.4944 21.3332C17.4944 21.2022 17.521 21.0794 17.5737 20.9635C17.6273 20.8478 17.6972 20.7482 17.7849 20.6635C17.8725 20.5796 17.9739 20.5125 18.0891 20.4619C18.205 20.4122 18.3283 20.3873 18.4597 20.3873C18.6531 20.3873 18.8277 20.4449 18.984 20.5604C19.1396 20.6764 19.218 20.853 19.218 21.0898C19.218 21.2212 19.1915 21.3445 19.1383 21.4602C19.0854 21.5758 19.0154 21.6754 18.9277 21.7601C18.8409 21.8442 18.7385 21.911 18.6235 21.9611C18.5075 22.0117 18.3847 22.0356 18.2537 22.0356Z" fill="#4D4D4D"/>
<path id="Vector_3" d="M19.9746 21.4082L21.4268 21.1832L21.0702 22.6356H22.6255L22.3447 23.7782H20.7987L20.3869 25.5016C20.349 25.6453 20.3275 25.7795 20.3215 25.9042C20.3147 26.0294 20.3305 26.137 20.368 26.2276C20.4052 26.3184 20.4722 26.3883 20.5694 26.4379C20.6661 26.4882 20.8045 26.5135 20.9861 26.5135C21.1357 26.5135 21.2814 26.4993 21.4223 26.4711C21.5624 26.4433 21.7043 26.4047 21.848 26.3541L21.9514 27.4224C21.764 27.4911 21.5611 27.5502 21.3425 27.6C21.1235 27.6504 20.8643 27.6747 20.5647 27.6747C20.134 27.6747 19.8 27.6107 19.5621 27.4834C19.3245 27.3551 19.1566 27.1799 19.0561 26.958C18.9569 26.737 18.9126 26.4822 18.925 26.1951C18.9378 25.9073 18.9812 25.6048 19.0561 25.2863L19.9746 21.4082Z" fill="#4D4D4D"/>
<path id="Vector_4" d="M22.5643 25.595C22.5643 25.1706 22.633 24.7704 22.7703 24.3957C22.9074 24.0207 23.1049 23.6928 23.3611 23.4114C23.6163 23.1314 23.9274 22.9095 24.2935 22.7466C24.6578 22.5847 25.0658 22.5031 25.5154 22.5031C25.7968 22.5031 26.0482 22.5297 26.2693 22.583C26.4914 22.6368 26.6923 22.7063 26.8741 22.7935L26.3959 23.8808C26.271 23.8301 26.1413 23.7855 26.0072 23.745C25.8731 23.7037 25.7093 23.6838 25.5155 23.6838C25.0527 23.6838 24.6869 23.8433 24.4146 24.1613C24.1433 24.4795 24.0067 24.9078 24.0067 25.4451C24.0067 25.7635 24.0754 26.021 24.2133 26.218C24.3505 26.415 24.6039 26.513 24.9719 26.513C25.1535 26.513 25.3287 26.494 25.4965 26.457C25.6657 26.4195 25.815 26.3723 25.9465 26.3166L26.05 27.4311C25.8747 27.4992 25.6813 27.5606 25.4691 27.6144C25.2565 27.6663 25.0034 27.6933 24.71 27.6933C24.3226 27.6933 23.9947 27.6366 23.7265 27.525C23.4581 27.4116 23.2364 27.2611 23.0617 27.0705C22.8861 26.8794 22.76 26.6563 22.6821 26.4002C22.6041 26.1443 22.5643 25.8755 22.5643 25.595Z" fill="#4D4D4D"/>
<path id="Vector_5" d="M28.7238 27.6933C28.3928 27.6933 28.1054 27.6428 27.8616 27.543C27.6184 27.4432 27.417 27.3031 27.2578 27.1215C27.0983 26.9408 26.9789 26.7267 26.8971 26.48C26.8153 26.2334 26.776 25.9603 26.776 25.6611C26.776 25.2857 26.8363 24.9105 26.9581 24.5363C27.0793 24.1613 27.2592 23.8243 27.4972 23.5249C27.7334 23.2249 28.0248 22.9797 28.3678 22.7885C28.7106 22.5986 29.1048 22.5031 29.5476 22.5031C29.8725 22.5031 30.1584 22.5536 30.4056 22.6534C30.6516 22.753 30.8543 22.8942 31.0145 23.0749C31.1729 23.2565 31.2933 23.4697 31.3743 23.7168C31.4559 23.9629 31.4961 24.2367 31.4961 24.5362C31.4961 24.9104 31.4367 25.2856 31.3187 25.6609C31.2006 26.0344 31.0253 26.3722 30.794 26.6724C30.5631 26.9718 30.2744 27.2169 29.9276 27.4073C29.5813 27.5977 29.1797 27.6933 28.7238 27.6933ZM29.4167 23.6839C29.2112 23.6839 29.0295 23.7436 28.8739 23.8615C28.7177 23.9807 28.5866 24.1306 28.4808 24.3114C28.374 24.493 28.2947 24.6911 28.2412 24.9063C28.1881 25.122 28.1621 25.326 28.1621 25.5197C28.1621 25.8324 28.2125 26.0758 28.3116 26.2511C28.4121 26.4254 28.5927 26.5131 28.8552 26.5131C29.0614 26.5131 29.2422 26.4539 29.3987 26.3347C29.5539 26.2164 29.6852 26.0664 29.7917 25.8852C29.8979 25.7045 29.9778 25.5059 30.0314 25.2903C30.0838 25.0753 30.1105 24.8702 30.1105 24.6768C30.1105 24.365 30.0603 24.1209 29.9603 23.9459C29.8603 23.7716 29.679 23.6839 29.4167 23.6839Z" fill="#4D4D4D"/>
<path id="Vector_6" d="M33.0028 27.5631H31.6151L32.786 22.6359H34.1827L33.0028 27.5631ZM33.6765 22.0356C33.4831 22.0356 33.3077 21.978 33.1522 21.8626C32.9961 21.7478 32.9177 21.5712 32.9177 21.3332C32.9177 21.2022 32.9446 21.0794 32.9975 20.9635C33.0503 20.8478 33.1208 20.7482 33.2085 20.6635C33.2956 20.5796 33.3979 20.5125 33.5129 20.4619C33.6281 20.4122 33.7514 20.3873 33.8823 20.3873C34.0762 20.3873 34.2513 20.4449 34.4073 20.5604C34.5633 20.6764 34.6421 20.853 34.6421 21.0898C34.6421 21.2212 34.6141 21.3445 34.5617 21.4602C34.5093 21.5758 34.4388 21.6754 34.3515 21.7601C34.2636 21.8442 34.1625 21.911 34.0473 21.9611C33.9312 22.0117 33.8081 22.0356 33.6765 22.0356Z" fill="#4D4D4D"/>
<path id="Vector_7" d="M35.1861 22.8597C35.2914 22.829 35.4089 22.792 35.5367 22.7517C35.665 22.7114 35.8083 22.674 35.9684 22.6402C36.1268 22.6054 36.3055 22.5772 36.502 22.5553C36.6985 22.533 36.9224 22.5221 37.1713 22.5221C37.9025 22.5221 38.4066 22.735 38.6849 23.1597C38.963 23.5843 39.0111 24.1654 38.8306 24.902L38.1928 27.5624H36.7972L37.4153 24.958C37.453 24.7953 37.4826 24.6381 37.5045 24.4845C37.5266 24.3323 37.5253 24.1981 37.4995 24.082C37.4749 23.9673 37.4168 23.8733 37.3267 23.8006C37.2352 23.729 37.097 23.693 36.9095 23.693C36.7287 23.693 36.5448 23.7125 36.3571 23.7499L35.4482 27.5623H34.052L35.1861 22.8597Z" fill="#4D4D4D"/>
</g>
<g id="Bitcoin_3">
<g id="Group_3">
<path id="Vector_8" d="M31.3017 12.6726C30.434 16.1528 26.9087 18.2708 23.4277 17.4029C19.9481 16.5352 17.8298 13.0102 18.698 9.53016C19.5654 6.04956 23.0907 3.93135 26.5707 4.79902C30.0515 5.66668 32.1695 9.19215 31.3017 12.6726Z" fill="#F7931A"/>
<path id="Vector_9" d="M27.8645 10.1755C27.9938 9.31111 27.3356 8.84642 26.4355 8.53642L26.7275 7.36546L26.0146 7.18782L25.7304 8.32793C25.543 8.28124 25.3505 8.23718 25.1592 8.19354L25.4455 7.04592L24.7331 6.86829L24.4409 8.03884C24.2858 8.00352 24.1335 7.9686 23.9857 7.93186L23.9865 7.9282L23.0034 7.68276L22.8138 8.44405C22.8138 8.44405 23.3427 8.56525 23.3315 8.57276C23.6203 8.64483 23.6724 8.83586 23.6637 8.9873L23.3311 10.3213C23.351 10.3264 23.3768 10.3337 23.4052 10.345C23.3815 10.3391 23.3561 10.3327 23.3299 10.3264L22.8637 12.1951C22.8284 12.2828 22.7389 12.4143 22.5371 12.3644C22.5442 12.3747 22.0189 12.2351 22.0189 12.2351L21.665 13.051L22.5927 13.2822C22.7653 13.3254 22.9344 13.3707 23.1009 13.4133L22.8059 14.5977L23.5179 14.7753L23.8101 13.6036C24.0046 13.6563 24.1934 13.7051 24.3782 13.7509L24.087 14.9172L24.7999 15.0949L25.0949 13.9127C26.3105 14.1427 27.2245 14.05 27.6093 12.9507C27.9193 12.0655 27.5938 11.555 26.9543 11.222C27.42 11.1146 27.7709 10.8083 27.8645 10.1755ZM26.2357 12.4592C26.0154 13.3443 24.525 12.8658 24.0418 12.7458L24.4332 11.1768C24.9164 11.2974 26.466 11.5361 26.2357 12.4592ZM26.4562 10.1627C26.2552 10.9679 25.0147 10.5588 24.6123 10.4585L24.9672 9.03542C25.3696 9.13571 26.6656 9.32288 26.4562 10.1627Z" fill="white"/>
</g>
</g>
</g>
</g>
</g>
<defs>
<clipPath id="clip0_1_6169">
<rect width="50" height="32" fill="white"/>
</clipPath>
</defs>
</svg>
