<svg width="50" height="32" viewBox="0 0 50 32" fill="none" xmlns="http://www.w3.org/2000/svg">
<g id="Discover">
<g id="Discover_2">
<rect id="Rectangle" width="50" height="32" rx="3" fill="#EDEDF0"/>
<g id="Mask Group">
<mask id="mask0_1_6149" style="mask-type:alpha" maskUnits="userSpaceOnUse" x="0" y="0" width="50" height="32">
<rect id="Rectangle_2" width="50" height="32" rx="3" fill="#EDEDF0"/>
</mask>
<g mask="url(#mask0_1_6149)">
<path id="Vector" d="M14.4531 32H48.3594C49.2578 32 50 31.2578 50 30.3594V18.875C46.7578 20.9453 34.4922 28.0547 14.4531 32Z" fill="#F58220"/>
</g>
</g>
<g id="Group">
<path id="Vector_2" d="M7.72173 12.9724H6V18.9856H7.71261C8.62327 18.9856 9.28087 18.7707 9.85808 18.2914C10.544 17.7238 10.9497 16.8681 10.9497 15.9831C10.9499 14.2088 9.62393 12.9724 7.72173 12.9724ZM9.09195 17.4896C8.72335 17.8224 8.24477 17.9675 7.48691 17.9675H7.17218V13.9913H7.48691C8.24477 13.9913 8.70462 14.1268 9.09195 14.4776C9.49763 14.8387 9.74158 15.3985 9.74158 15.9744C9.74158 16.5518 9.49763 17.1286 9.09195 17.4896Z" fill="#231F20"/>
<path id="Vector_3" d="M12.6625 12.9724H11.4895V18.9856H12.6625V12.9724Z" fill="#231F20"/>
<path id="Vector_4" d="M15.5305 15.2801C14.8267 15.0197 14.62 14.8479 14.62 14.5231C14.62 14.1442 14.9882 13.8565 15.4937 13.8565C15.8452 13.8565 16.1339 14.0009 16.4395 14.3435L17.0532 13.5399C16.5489 13.0987 15.9455 12.8732 15.2862 12.8732C14.2223 12.8732 13.4107 13.612 13.4107 14.5962C13.4107 15.4246 13.7886 15.8487 14.8902 16.2451C15.3494 16.407 15.5831 16.5149 15.701 16.5875C15.9354 16.7405 16.0527 16.9572 16.0527 17.2096C16.0527 17.6968 15.6654 18.0578 15.1421 18.0578C14.5826 18.0578 14.132 17.778 13.862 17.2558L13.1044 17.9855C13.6448 18.7788 14.2937 19.1304 15.1863 19.1304C16.4051 19.1304 17.2602 18.32 17.2602 17.1559C17.26 16.2005 16.8648 15.768 15.5305 15.2801Z" fill="#231F20"/>
<path id="Vector_5" d="M17.6301 15.9832C17.6301 17.7506 19.0181 19.1212 20.8041 19.1212C21.3091 19.1212 21.7415 19.0218 22.2747 18.7708V17.3901C21.8057 17.8595 21.3904 18.0487 20.8587 18.0487C19.6774 18.0487 18.8391 17.1922 18.8391 15.9745C18.8391 14.82 19.704 13.9092 20.8043 13.9092C21.3637 13.9092 21.7872 14.1089 22.2749 14.5858V13.2057C21.76 12.9444 21.3367 12.8363 20.832 12.8363C19.0546 12.8366 17.6301 14.235 17.6301 15.9832Z" fill="#231F20"/>
<path id="Vector_6" d="M31.5744 17.0114L29.9708 12.9724H28.6895L31.2415 19.1399H31.8726L34.4703 12.9724H33.1988L31.5744 17.0114Z" fill="#231F20"/>
<path id="Vector_7" d="M35.0006 18.9856H38.327V17.9677H36.1726V16.3446H38.2476V15.326H36.1726V13.9913H38.327V12.9724H35.0006V18.9856Z" fill="#231F20"/>
<path id="Vector_8" d="M42.971 14.7476C42.971 13.6218 42.1955 12.9724 40.8429 12.9724H39.1038V18.9856H40.2753V16.57H40.4283L42.0517 18.9857H43.4941L41.6012 16.4523C42.4845 16.2727 42.971 15.6684 42.971 14.7476ZM40.6179 15.7408H40.2754V13.9196H40.6365C41.367 13.9196 41.7641 14.2257 41.7641 14.8108C41.7641 15.4154 41.3671 15.7408 40.6179 15.7408Z" fill="#231F20"/>
<g id="MarkingBase 1">
<path id="Vector_9" d="M25.8564 19.1988C27.6231 19.1988 29.0553 17.7667 29.0553 16C29.0553 14.2333 27.6231 12.8011 25.8564 12.8011C24.0898 12.8011 22.6576 14.2333 22.6576 16C22.6576 17.7667 24.0898 19.1988 25.8564 19.1988Z" fill="url(#paint0_linear_1_6149)"/>
<path id="Vector_10" opacity="0.65" d="M25.8564 19.1988C27.6231 19.1988 29.0553 17.7667 29.0553 16C29.0553 14.2333 27.6231 12.8011 25.8564 12.8011C24.0898 12.8011 22.6576 14.2333 22.6576 16C22.6576 17.7667 24.0898 19.1988 25.8564 19.1988Z" fill="url(#paint1_linear_1_6149)"/>
</g>
<g id="Registered 1">
<path id="Vector_11" d="M43.7197 13.1985C43.7197 13.093 43.6471 13.0354 43.5196 13.0354H43.3499V13.5639H43.476V13.3589L43.6239 13.5639H43.7778L43.604 13.346C43.6787 13.326 43.7197 13.2719 43.7197 13.1985ZM43.4974 13.2707H43.4761V13.1325H43.4987C43.561 13.1325 43.5936 13.155 43.5936 13.2005C43.5936 13.2471 43.5607 13.2707 43.4974 13.2707Z" fill="#231F20"/>
<path id="Vector_12" d="M43.5452 12.8381C43.2885 12.8381 43.0848 13.0429 43.0848 13.2988C43.0848 13.5547 43.2908 13.7597 43.5452 13.7597C43.7952 13.7597 44 13.5524 44 13.2988C44 13.0464 43.7951 12.8381 43.5452 12.8381ZM43.5431 13.6773C43.3412 13.6773 43.176 13.5093 43.176 13.2995C43.176 13.0891 43.3391 12.9211 43.5431 12.9211C43.7442 12.9211 43.908 13.0929 43.908 13.2995C43.908 13.5074 43.7444 13.6773 43.5431 13.6773Z" fill="#231F20"/>
</g>
</g>
</g>
</g>
<defs>
<linearGradient id="paint0_linear_1_6149" x1="27.4938" y1="18.5636" x2="25.2789" y2="15.0958" gradientUnits="userSpaceOnUse">
<stop stop-color="#F89F21"/>
<stop offset="0.2502" stop-color="#F79A23"/>
<stop offset="0.5331" stop-color="#F78E22"/>
<stop offset="0.6196" stop-color="#F68721"/>
<stop offset="0.7232" stop-color="#F48220"/>
<stop offset="1" stop-color="#F27623"/>
</linearGradient>
<linearGradient id="paint1_linear_1_6149" x1="27.1439" y1="18.5165" x2="23.9069" y2="12.1894" gradientUnits="userSpaceOnUse">
<stop stop-color="#F68721" stop-opacity="0"/>
<stop offset="0.3587" stop-color="#E27027" stop-opacity="0.2704"/>
<stop offset="0.703" stop-color="#D4612C" stop-opacity="0.5299"/>
<stop offset="0.9816" stop-color="#D15D2D" stop-opacity="0.74"/>
</linearGradient>
</defs>
</svg>
