<svg width="50" height="32" viewBox="0 0 50 32" fill="none" xmlns="http://www.w3.org/2000/svg">
<g id="Ethereum">
<g id="Ethereum_2">
<rect id="Rectangle" width="50" height="32" rx="3" fill="#EDEDF0"/>
<g id="Group">
<path id="Vector" d="M12.6605 26.519C12.6605 26.5854 12.6049 26.6394 12.5385 26.6394H10.1879C10.2466 27.2201 10.6837 27.7498 11.2983 27.7498C11.7184 27.7498 12.0304 27.5892 12.2651 27.2541C12.2991 27.2077 12.3501 27.1784 12.4149 27.2062C12.4505 27.2216 12.4752 27.2541 12.4813 27.2911C12.4875 27.3298 12.4767 27.3514 12.4659 27.373C12.2296 27.7853 11.7586 27.9877 11.2968 27.9877C10.5061 27.9877 9.94238 27.2803 9.94238 26.5236C9.94238 25.7668 10.5061 25.0595 11.2968 25.0595C12.0875 25.058 12.6589 25.7638 12.6605 26.519ZM12.4088 26.4047C12.3578 25.824 11.913 25.2943 11.2983 25.2943C10.6837 25.2943 10.2466 25.824 10.1879 26.4047H12.4088ZM15.513 25.1167C15.5809 25.1167 15.6303 25.1753 15.6303 25.234C15.6303 25.302 15.5794 25.3514 15.513 25.3514H14.8828V27.824C14.8828 27.8826 14.8319 27.9413 14.7655 27.9413C14.6975 27.9413 14.6481 27.8826 14.6481 27.824V25.3514H14.0427C13.9748 25.3514 13.9253 25.3004 13.9253 25.234C13.9253 25.1753 13.9763 25.1167 14.0427 25.1167H14.6481V24.2117C14.6481 24.1545 14.6867 24.102 14.7423 24.0927C14.8211 24.0804 14.8828 24.1344 14.8828 24.2086V25.1167H15.513ZM19.3569 26.312V27.8101C19.3569 27.878 19.2982 27.9274 19.2395 27.9274C19.1716 27.9274 19.1222 27.8765 19.1222 27.8101V26.312C19.1222 25.807 18.8365 25.302 18.2728 25.302C17.55 25.302 17.238 25.9336 17.2797 26.5807C17.2797 26.5977 17.2874 26.6734 17.2874 26.6811V27.8054C17.2874 27.8626 17.2488 27.9151 17.1932 27.9243C17.1145 27.9367 17.0527 27.8826 17.0527 27.8085V22.8881C17.0527 22.8294 17.1037 22.7708 17.1701 22.7708C17.238 22.7708 17.2874 22.8294 17.2874 22.8881V25.6726C17.4898 25.3113 17.8511 25.0672 18.2712 25.0672C18.9615 25.0672 19.3569 25.6726 19.3569 26.312ZM23.5715 26.519C23.5715 26.5854 23.5159 26.6394 23.4495 26.6394H21.0974C21.1561 27.2201 21.5932 27.7498 22.2078 27.7498C22.6279 27.7498 22.9399 27.5892 23.1746 27.2541C23.2086 27.2077 23.2596 27.1784 23.3244 27.2062C23.3599 27.2216 23.3846 27.2541 23.3908 27.2911C23.397 27.3298 23.3862 27.3514 23.3754 27.373C23.1391 27.7853 22.6681 27.9877 22.2063 27.9877C21.4156 27.9877 20.8519 27.2803 20.8519 26.5236C20.8519 25.7668 21.4156 25.0595 22.2063 25.0595C22.9986 25.058 23.57 25.7638 23.5715 26.519ZM23.3182 26.4047C23.2673 25.824 22.8225 25.2943 22.2078 25.2943C21.5932 25.2943 21.1561 25.824 21.0974 26.4047H23.3182ZM26.4564 25.2263C26.4564 25.302 26.4147 25.3437 26.3468 25.353C25.6564 25.4533 25.346 26.017 25.346 26.6734V27.7977C25.346 27.8548 25.3074 27.9074 25.2518 27.9166C25.173 27.929 25.1113 27.8749 25.1113 27.8008V25.2387C25.1113 25.1815 25.1499 25.129 25.2055 25.1198C25.2842 25.1074 25.346 25.1614 25.346 25.2356V25.7576C25.5391 25.4302 25.9267 25.1182 26.3298 25.1182C26.3885 25.1167 26.4564 25.1599 26.4564 25.2263ZM30.3174 26.519C30.3174 26.5854 30.2618 26.6394 30.1954 26.6394H27.8448C27.9035 27.2201 28.3406 27.7498 28.9552 27.7498C29.3753 27.7498 29.6873 27.5892 29.922 27.2541C29.956 27.2077 30.0069 27.1784 30.0718 27.2062C30.1073 27.2216 30.132 27.2541 30.1382 27.2911C30.1444 27.3298 30.1336 27.3514 30.1228 27.373C29.8865 27.7853 29.4154 27.9877 28.9537 27.9877C28.163 27.9877 27.5993 27.2803 27.5993 26.5236C27.5993 25.7668 28.163 25.0595 28.9537 25.0595C29.7444 25.058 30.3158 25.7638 30.3174 26.519ZM30.0656 26.4047C30.0147 25.824 29.5699 25.2943 28.9552 25.2943C28.3406 25.2943 27.9035 25.824 27.8448 26.4047H30.0656ZM34.1119 25.2557V27.824C34.1119 27.8919 34.0532 27.9413 33.9945 27.9413C33.9266 27.9413 33.8772 27.8904 33.8772 27.824V27.3359C33.6841 27.7236 33.3382 28 32.9011 28C32.203 28 31.8154 27.3946 31.8154 26.7552V25.2495C31.8154 25.1908 31.8664 25.1321 31.9328 25.1321C32.0007 25.1321 32.0502 25.1908 32.0502 25.2495V26.7552C32.0502 27.2603 32.3359 27.7653 32.8996 27.7653C33.6903 27.7653 33.8756 27.0255 33.8756 26.2085V25.2495C33.8756 25.1815 33.9436 25.112 34.027 25.1367C34.0779 25.1537 34.1119 25.2031 34.1119 25.2557ZM40.0578 26.3027V27.8085C40.0578 27.8765 39.9991 27.9259 39.9404 27.9259C39.8724 27.9259 39.823 27.8749 39.823 27.8085V26.3027C39.823 25.7977 39.5373 25.302 38.9736 25.302C38.2663 25.302 37.9976 26.0587 37.9976 26.6471V27.8085C37.9976 27.8765 37.9389 27.9259 37.8802 27.9259C37.8122 27.9259 37.7628 27.8749 37.7628 27.8085V26.3027C37.7628 25.7977 37.4771 25.302 36.9134 25.302C36.1984 25.302 35.9034 25.8657 35.9296 26.6147C35.9296 26.6317 35.9374 26.6657 35.9296 26.6734V27.8054C35.9296 27.8626 35.891 27.9151 35.8339 27.9243C35.7551 27.9367 35.6933 27.8826 35.6933 27.8085V25.2387C35.6933 25.1815 35.732 25.129 35.7875 25.1198C35.8663 25.1074 35.9281 25.1614 35.9281 25.2356V25.6649C36.1304 25.3035 36.4918 25.0672 36.9119 25.0672C37.3906 25.0672 37.7613 25.3699 37.9126 25.8163C38.1057 25.3792 38.484 25.0672 38.9721 25.0672C39.6624 25.0672 40.0578 25.6634 40.0578 26.3027Z" fill="black"/>
<g id="Ethereum_logo_2014">
<g id="Group_2">
<path id="Vector_2" d="M24.9983 4L24.8937 4.35871V14.7678L24.9983 14.8731L29.788 12.0171L24.9983 4Z" fill="#343434"/>
<path id="Vector_3" d="M24.9984 4L20.2087 12.0171L24.9984 14.8732V9.82092V4Z" fill="#8C8C8C"/>
<path id="Vector_4" d="M24.9984 15.788L24.9395 15.8605V19.5684L24.9984 19.7421L29.7909 12.9333L24.9984 15.788Z" fill="#3C3C3B"/>
<path id="Vector_5" d="M24.9984 19.7421V15.788L20.2087 12.9333L24.9984 19.7421Z" fill="#8C8C8C"/>
<path id="Vector_6" d="M24.9984 14.873L29.788 12.017L24.9984 9.8208V14.873Z" fill="#141414"/>
<path id="Vector_7" d="M20.2087 12.017L24.9983 14.873V9.8208L20.2087 12.017Z" fill="#393939"/>
</g>
</g>
</g>
</g>
</g>
</svg>
