<svg width="50" height="32" viewBox="0 0 50 32" fill="none" xmlns="http://www.w3.org/2000/svg">
<g id="Google Pay">
<g id="Google Pay_2">
<rect id="Rectangle" width="50" height="32" rx="3" fill="#EDEDF0"/>
<g id="Group">
<path id="Vector" d="M23.9713 16.8272V21.2504H22.5681V10.327H26.2897C26.7339 10.3177 27.1756 10.3965 27.5892 10.5588C28.0028 10.7211 28.3802 10.9638 28.6996 11.2727C29.0222 11.5628 29.2789 11.9187 29.4525 12.3163C29.6262 12.7139 29.7127 13.1441 29.7062 13.578C29.7155 14.0141 29.6303 14.4471 29.4565 14.8473C29.2828 15.2474 29.0246 15.6053 28.6996 15.8963C28.0488 16.5169 27.2455 16.8269 26.2897 16.8263H23.9713V16.8272ZM23.9713 11.6719V15.485H26.3246C26.5825 15.4926 26.8393 15.4463 27.0784 15.3491C27.3174 15.2518 27.5336 15.1057 27.713 14.9202C27.8914 14.7467 28.0333 14.5392 28.1301 14.3099C28.227 14.0806 28.2769 13.8343 28.2769 13.5854C28.2769 13.3365 28.227 13.0901 28.1301 12.8609C28.0333 12.6316 27.8914 12.4241 27.713 12.2506C27.5358 12.0611 27.3204 11.9114 27.0811 11.8115C26.8417 11.7116 26.5838 11.6637 26.3246 11.671H23.9713V11.6719Z" fill="#5F6368"/>
<path id="Vector_2" d="M32.9398 13.5326C33.977 13.5326 34.7957 13.8098 35.3959 14.3641C35.9961 14.9184 36.2959 15.6784 36.2953 16.6441V21.2503H34.9531V20.2131H34.8921C34.3111 21.0673 33.5383 21.4943 32.5738 21.4943C31.7504 21.4943 31.0616 21.2503 30.5073 20.7622C30.2413 20.5382 30.0286 20.2577 29.8847 19.941C29.7409 19.6244 29.6695 19.2797 29.6758 18.9319C29.6758 18.1586 29.9681 17.5435 30.5526 17.0868C31.1371 16.6301 31.9175 16.4012 32.8936 16.4C33.7268 16.4 34.413 16.5526 34.9523 16.8576V16.5369C34.9538 16.2998 34.9027 16.0654 34.8024 15.8506C34.7022 15.6358 34.5554 15.4459 34.3727 15.2949C34.0016 14.9601 33.518 14.7774 33.0183 14.7833C32.2344 14.7833 31.6142 15.1139 31.1575 15.7751L29.9216 14.9968C30.6014 14.0207 31.6075 13.5326 32.9398 13.5326ZM31.1243 18.9624C31.1234 19.141 31.1651 19.3173 31.2461 19.4764C31.3271 19.6356 31.4449 19.7732 31.5898 19.8776C31.9001 20.1217 32.2853 20.251 32.6801 20.2436C33.2722 20.2427 33.8398 20.007 34.2585 19.5882C34.7233 19.1507 34.9557 18.6374 34.9557 18.0482C34.5182 17.6995 33.9081 17.5252 33.1255 17.5252C32.5555 17.5252 32.0802 17.6627 31.6996 17.9375C31.3152 18.2164 31.1243 18.5554 31.1243 18.9624Z" fill="#5F6368"/>
<path id="Vector_3" d="M44 13.7767L39.3144 24.5449H37.8659L39.6047 20.7771L36.5237 13.7767H38.0489L40.2758 19.1456H40.3063L42.4721 13.7767H44Z" fill="#5F6368"/>
<g id="Group_2">
<path id="Vector_4" d="M18.3009 15.8736C18.3014 15.446 18.2653 15.0191 18.1928 14.5977H12.2749V17.0145H15.6644C15.5951 17.4005 15.4483 17.7685 15.2329 18.0962C15.0175 18.424 14.7379 18.7047 14.4111 18.9215V20.4903H16.434C17.6185 19.3982 18.3009 17.7832 18.3009 15.8736Z" fill="#4285F4"/>
<path id="Vector_5" d="M12.275 22.006C13.9684 22.006 15.3943 21.45 16.4341 20.4912L14.4112 18.9224C13.8482 19.3042 13.123 19.5221 12.275 19.5221C10.6382 19.5221 9.24892 18.4187 8.75213 16.9318H6.66821V18.5485C7.19051 19.5878 7.9914 20.4615 8.98147 21.0721C9.97154 21.6826 11.1118 22.006 12.275 22.006Z" fill="#34A853"/>
<path id="Vector_6" d="M8.75212 16.9319C8.48948 16.1527 8.48948 15.309 8.75212 14.5298V12.9131H6.6682C6.22883 13.7874 6 14.7524 6 15.7309C6 16.7094 6.22883 17.6743 6.6682 18.5486L8.75212 16.9319Z" fill="#FBBC04"/>
<path id="Vector_7" d="M12.275 11.9395C13.1699 11.9248 14.0346 12.263 14.6823 12.8807L16.4733 11.0897C15.3376 10.0229 13.833 9.43729 12.275 9.45549C11.1118 9.45554 9.97154 9.77889 8.98147 10.3894C7.9914 11 7.19051 11.8737 6.66821 12.913L8.75213 14.5297C9.24892 13.0429 10.6382 11.9395 12.275 11.9395Z" fill="#EA4335"/>
</g>
</g>
</g>
</g>
</svg>
