<svg width="50" height="32" viewBox="0 0 50 32" fill="none" xmlns="http://www.w3.org/2000/svg">
<g id="Litecoin">
<g id="Litecoin_2">
<rect id="Rectangle" width="50" height="32" rx="3" fill="#EDEDF0"/>
<g id="Group">
<g id="litecoin">
<path d="M15.0353 27.9259H14.3502V22.2377H15.0353V27.9259Z" fill="#A5A8A9"/>
<path d="M16.5762 27.9259H15.8911V23.919H16.5762V27.9259ZM15.8355 22.8561C15.8355 22.745 15.8689 22.6512 15.9355 22.5747C16.0046 22.4981 16.1059 22.4599 16.2392 22.4599C16.3725 22.4599 16.4737 22.4981 16.5428 22.5747C16.612 22.6512 16.6465 22.745 16.6465 22.8561C16.6465 22.9672 16.612 23.0598 16.5428 23.1339C16.4737 23.2079 16.3725 23.245 16.2392 23.245C16.1059 23.245 16.0046 23.2079 15.9355 23.1339C15.8689 23.0598 15.8355 22.9672 15.8355 22.8561Z" fill="#A5A8A9"/>
<path d="M18.3022 22.9487V23.919H19.0503V24.4485H18.3022V26.9334C18.3022 27.0939 18.3355 27.2149 18.4022 27.2963C18.4688 27.3753 18.5824 27.4148 18.7429 27.4148C18.8219 27.4148 18.9305 27.4 19.0688 27.3704V27.9259C18.8885 27.9753 18.7133 27.9999 18.5429 27.9999C18.2368 27.9999 18.0059 27.9074 17.8504 27.7222C17.6949 27.537 17.6171 27.2741 17.6171 26.9334V24.4485H16.8875V23.919H17.6171V22.9487H18.3022Z" fill="#A5A8A9"/>
<path d="M21.2133 27.9999C20.6701 27.9999 20.2282 27.8222 19.8875 27.4667C19.5468 27.1087 19.3764 26.631 19.3764 26.0335V25.9076C19.3764 25.5101 19.4517 25.1558 19.6023 24.8448C19.7554 24.5312 19.9677 24.2868 20.2393 24.1115C20.5133 23.9338 20.8096 23.8449 21.1281 23.8449C21.649 23.8449 22.0539 24.0165 22.3427 24.3596C22.6316 24.7028 22.776 25.1941 22.776 25.8335V26.1187H20.0615C20.0714 26.5137 20.1862 26.8334 20.4059 27.0778C20.6281 27.3198 20.9096 27.4408 21.2503 27.4408C21.4922 27.4408 21.6971 27.3914 21.865 27.2926C22.0329 27.1939 22.1798 27.063 22.3057 26.9001L22.7242 27.226C22.3884 27.742 21.8848 27.9999 21.2133 27.9999ZM21.1281 24.4078C20.8516 24.4078 20.6195 24.509 20.4319 24.7115C20.2442 24.9114 20.1282 25.1929 20.0838 25.5558H22.0909V25.5039C22.0712 25.1558 21.9774 24.8867 21.8095 24.6966C21.6416 24.5041 21.4145 24.4078 21.1281 24.4078Z" fill="#A5A8A9"/>
<path d="M24.8761 27.4408C25.1205 27.4408 25.334 27.3667 25.5167 27.2186C25.6994 27.0704 25.8007 26.8853 25.8204 26.6631H26.4685C26.4561 26.8927 26.3771 27.1112 26.2315 27.3185C26.0858 27.5259 25.8908 27.6913 25.6464 27.8148C25.4044 27.9382 25.1476 27.9999 24.8761 27.9999C24.3305 27.9999 23.8959 27.8185 23.5725 27.4556C23.2516 27.0902 23.0911 26.5915 23.0911 25.9594V25.8446C23.0911 25.4546 23.1627 25.1077 23.3059 24.804C23.4491 24.5004 23.654 24.2646 23.9206 24.0967C24.1897 23.9288 24.507 23.8449 24.8724 23.8449C25.3217 23.8449 25.6945 23.9794 25.9908 24.2485C26.2895 24.5176 26.4487 24.867 26.4685 25.2966H25.8204C25.8007 25.0373 25.7019 24.825 25.5241 24.6596C25.3489 24.4917 25.1316 24.4078 24.8724 24.4078C24.5243 24.4078 24.2539 24.5337 24.0614 24.7855C23.8713 25.0349 23.7762 25.3966 23.7762 25.8706V26.0002C23.7762 26.4619 23.8713 26.8174 24.0614 27.0667C24.2515 27.3161 24.523 27.4408 24.8761 27.4408Z" fill="#A5A8A9"/>
<path d="M26.7539 25.8854C26.7539 25.4928 26.8305 25.1398 26.9835 24.8263C27.1391 24.5127 27.3539 24.2708 27.6279 24.1004C27.9044 23.9301 28.2192 23.8449 28.5722 23.8449C29.1178 23.8449 29.5585 24.0338 29.8943 24.4115C30.2325 24.7892 30.4016 25.2916 30.4016 25.9187V25.9669C30.4016 26.3569 30.3263 26.7075 30.1757 27.0186C30.0276 27.3272 29.8141 27.5679 29.5351 27.7407C29.2586 27.9135 28.9401 27.9999 28.5796 27.9999C28.0365 27.9999 27.5958 27.8111 27.2576 27.4333C26.9218 27.0556 26.7539 26.5557 26.7539 25.9335V25.8854ZM27.4427 25.9669C27.4427 26.4112 27.5452 26.768 27.7501 27.0371C27.9575 27.3062 28.234 27.4408 28.5796 27.4408C28.9277 27.4408 29.2043 27.305 29.4092 27.0334C29.6141 26.7594 29.7165 26.3767 29.7165 25.8854C29.7165 25.4459 29.6116 25.0904 29.4018 24.8188C29.1944 24.5448 28.9179 24.4078 28.5722 24.4078C28.234 24.4078 27.9612 24.5423 27.7538 24.8114C27.5464 25.0805 27.4427 25.4657 27.4427 25.9669Z" fill="#A5A8A9"/>
<path d="M31.7018 27.9259H31.0167V23.919H31.7018V27.9259ZM30.9611 22.8561C30.9611 22.745 30.9945 22.6512 31.0611 22.5747C31.1302 22.4981 31.2315 22.4599 31.3648 22.4599C31.4981 22.4599 31.5993 22.4981 31.6685 22.5747C31.7376 22.6512 31.7721 22.745 31.7721 22.8561C31.7721 22.9672 31.7376 23.0598 31.6685 23.1339C31.5993 23.2079 31.4981 23.245 31.3648 23.245C31.2315 23.245 31.1302 23.2079 31.0611 23.1339C30.9945 23.0598 30.9611 22.9672 30.9611 22.8561Z" fill="#A5A8A9"/>
<path d="M33.1463 23.919L33.1686 24.4226C33.4747 24.0375 33.8747 23.8449 34.3684 23.8449C35.2152 23.8449 35.6423 24.3226 35.6498 25.278V27.9259H34.9646V25.2743C34.9622 24.9855 34.8955 24.7719 34.7647 24.6337C34.6363 24.4954 34.4351 24.4263 34.161 24.4263C33.9388 24.4263 33.7438 24.4856 33.5759 24.6041C33.408 24.7226 33.2772 24.8781 33.1834 25.0707V27.9259H32.4983V23.919H33.1463Z" fill="#A5A8A9"/>
</g>
<path id="Subtract" fill-rule="evenodd" clip-rule="evenodd" d="M17.5452 11.4548C17.5452 7.33977 20.8849 4 25 4C29.1151 4 32.4548 7.33977 32.4548 11.4548C32.4548 15.5699 29.1151 18.9097 25 18.9097C20.8849 18.9097 17.5452 15.5699 17.5452 11.4548ZM24.2221 14.0043L24.963 11.5041L26.1054 11.1716L26.3484 10.3496L25.2163 10.6943L26.4225 6.5881C26.4276 6.57087 26.4293 6.55192 26.4293 6.53296C26.4293 6.41924 26.338 6.32964 26.226 6.32964H24.6925C24.5718 6.32964 24.465 6.41062 24.4323 6.52779L22.9952 11.3835L21.8614 11.7281L21.6115 12.5363L22.7436 12.1916L21.7201 15.6482H27.7734C27.894 15.6482 28.0008 15.5689 28.0353 15.4517L28.3799 14.2645C28.3851 14.2456 28.3885 14.2266 28.3885 14.2077C28.3885 14.0957 28.2972 14.0043 28.1852 14.0043H24.2221Z" fill="#A5A8A9"/>
</g>
</g>
</g>
</svg>
