<svg width="50" height="32" viewBox="0 0 50 32" fill="none" xmlns="http://www.w3.org/2000/svg">
<g id="Maestro" clip-path="url(#clip0_1_6104)">
<g id="Maestro_2">
<rect id="Rectangle" width="50" height="32" rx="3" fill="#EDEDF0"/>
<g id="Group">
<g id="Group_2">
<path id="Vector" d="M29.3741 23.8632H20.6249V8.1394H29.3741V23.8632Z" fill="#6C6BBD"/>
<g id="Group_3">
<path id="Vector_2" d="M21.1854 16C21.1854 12.8104 22.6788 9.9691 25.0044 8.13809C23.3038 6.79916 21.1574 6 18.8248 6C13.3025 6 8.82605 10.4771 8.82605 16C8.82605 21.5229 13.3025 26 18.8248 26C21.1574 26 23.3038 25.2008 25.0044 23.8619C22.6788 22.0309 21.1854 19.1896 21.1854 16Z" fill="#EB001B"/>
</g>
<g id="Group_4">
<path id="Vector_3" d="M41.1739 16C41.1739 21.5229 36.6975 26 31.1752 26C28.8425 26 26.6962 25.2008 24.9949 23.8619C27.3211 22.0309 28.8146 19.1896 28.8146 16C28.8146 12.8104 27.3211 9.9691 24.9949 8.13809C26.6962 6.79916 28.8425 6 31.1752 6C36.6975 6 41.1739 10.4771 41.1739 16Z" fill="#0099DF"/>
</g>
</g>
<g id="Group_5">
<path id="Vector_4" d="M34.0153 14.2904C34.1585 14.2904 34.3643 14.3178 34.5215 14.3796L34.3024 15.0493C34.1522 14.9875 34.002 14.9671 33.8581 14.9671C33.3933 14.9671 33.161 15.2676 33.161 15.8074V17.6397H32.4498V14.3725H33.1539V14.7692C33.3386 14.4821 33.6054 14.2904 34.0153 14.2904ZM31.3881 15.0219H30.2263V16.4982C30.2263 16.8261 30.3421 17.0451 30.6981 17.0451C30.8827 17.0451 31.1151 16.9833 31.3263 16.8605L31.5313 17.4684C31.306 17.6256 30.9508 17.7219 30.6433 17.7219C29.8022 17.7219 29.5088 17.2704 29.5088 16.5115V15.0219H28.8454V14.3725H29.5088V13.3813H30.2263V14.3725H31.3881V15.0219ZM22.2899 15.719C22.3658 15.2472 22.6521 14.9257 23.1583 14.9257C23.616 14.9257 23.9102 15.2128 23.9853 15.719H22.2899ZM24.7239 16.0061C24.7168 14.9875 24.0878 14.2904 23.1716 14.2904C22.2148 14.2904 21.5451 14.9875 21.5451 16.0061C21.5451 17.0443 22.2422 17.7211 23.2201 17.7211C23.7123 17.7211 24.1629 17.5983 24.5596 17.2634L24.2106 16.7369C23.9376 16.9559 23.5886 17.0788 23.2608 17.0788C22.8031 17.0788 22.3861 16.8667 22.2836 16.2792H24.7098C24.7168 16.19 24.7239 16.1016 24.7239 16.0061ZM27.8471 15.2065C27.6491 15.0829 27.2462 14.9257 26.8292 14.9257C26.4396 14.9257 26.2072 15.0696 26.2072 15.309C26.2072 15.5273 26.4529 15.5891 26.7604 15.6298L27.0952 15.6775C27.8064 15.7808 28.2367 16.0812 28.2367 16.6555C28.2367 17.2775 27.6898 17.7219 26.7471 17.7219C26.2135 17.7219 25.7214 17.585 25.3318 17.2978L25.6666 16.7439C25.906 16.9285 26.262 17.0858 26.7541 17.0858C27.2392 17.0858 27.4989 16.9426 27.4989 16.6891C27.4989 16.5053 27.3143 16.402 26.9247 16.348L26.5898 16.3003C25.8583 16.197 25.4616 15.8692 25.4616 15.3364C25.4616 14.687 25.9952 14.2904 26.8222 14.2904C27.3417 14.2904 27.8134 14.407 28.1546 14.6323L27.8471 15.2065ZM36.6136 14.9656C36.4673 14.9656 36.3319 14.9914 36.206 15.0422C36.0808 15.0939 35.972 15.1659 35.8805 15.2582C35.789 15.3505 35.717 15.4616 35.6646 15.5907C35.6121 15.7198 35.5863 15.8622 35.5863 16.0171C35.5863 16.1728 35.6121 16.3144 35.6646 16.4435C35.717 16.5726 35.789 16.6837 35.8805 16.776C35.972 16.8683 36.0808 16.9403 36.206 16.9919C36.3319 17.0436 36.4673 17.0686 36.6136 17.0686C36.7599 17.0686 36.896 17.0436 37.0212 16.9919C37.1471 16.9403 37.2567 16.8683 37.3482 16.776C37.4413 16.6837 37.5133 16.5726 37.5665 16.4435C37.6189 16.3144 37.6447 16.1728 37.6447 16.0171C37.6447 15.8622 37.6189 15.7198 37.5665 15.5907C37.5133 15.4616 37.4413 15.3505 37.3482 15.2582C37.2567 15.1659 37.1471 15.0939 37.0212 15.0422C36.896 14.9914 36.7599 14.9656 36.6136 14.9656ZM36.6136 14.2904C36.8671 14.2904 37.1018 14.3342 37.3177 14.4226C37.5336 14.5102 37.7206 14.6315 37.8779 14.7856C38.0359 14.9398 38.1588 15.122 38.2479 15.3317C38.3371 15.5422 38.3817 15.7706 38.3817 16.0171C38.3817 16.2635 38.3371 16.492 38.2479 16.7024C38.1588 16.9121 38.0359 17.0952 37.8779 17.2493C37.7206 17.4034 37.5336 17.5239 37.3177 17.6123C37.1018 17.7 36.8671 17.7438 36.6136 17.7438C36.3601 17.7438 36.1254 17.7 35.9094 17.6123C35.6935 17.5239 35.5081 17.4034 35.3516 17.2493C35.1951 17.0952 35.0723 16.9121 34.9831 16.7024C34.8939 16.492 34.8493 16.2635 34.8493 16.0171C34.8493 15.7706 34.8939 15.5422 34.9831 15.3317C35.0723 15.122 35.1951 14.9398 35.3516 14.7856C35.5081 14.6315 35.6935 14.5102 35.9094 14.4226C36.1254 14.3342 36.3601 14.2904 36.6136 14.2904ZM18.1371 16.0061C18.1371 15.4319 18.5134 14.9601 19.1283 14.9601C19.7159 14.9601 20.1126 15.4115 20.1126 16.0061C20.1126 16.6007 19.7159 17.0514 19.1283 17.0514C18.5134 17.0514 18.1371 16.5804 18.1371 16.0061ZM20.7823 16.0061V14.3725H20.0719V14.7692C19.8458 14.475 19.5047 14.2904 19.0399 14.2904C18.1238 14.2904 17.4063 15.0078 17.4063 16.0061C17.4063 17.0037 18.1238 17.7219 19.0399 17.7219C19.5047 17.7219 19.8458 17.5372 20.0719 17.2431V17.6397H20.7823V16.0061ZM16.7773 17.6397V15.5891C16.7773 14.8169 16.2852 14.2974 15.4927 14.2904C15.0756 14.2833 14.6446 14.4132 14.3441 14.8717C14.1188 14.5094 13.7628 14.2904 13.2637 14.2904C12.9155 14.2904 12.5736 14.3929 12.3068 14.7755V14.3725H11.5964V17.6397H12.3139V15.8285C12.3139 15.2613 12.6284 14.9601 13.1135 14.9601C13.5852 14.9601 13.8246 15.2676 13.8246 15.8215V17.6397H14.5421V15.8285C14.5421 15.2613 14.8707 14.9601 15.3417 14.9601C15.8275 14.9601 16.0599 15.2676 16.0599 15.8215V17.6397H16.7773Z" fill="white"/>
</g>
</g>
</g>
</g>
<defs>
<clipPath id="clip0_1_6104">
<rect width="50" height="32" fill="white"/>
</clipPath>
</defs>
</svg>
