<svg width="50" height="32" viewBox="0 0 50 32" fill="none" xmlns="http://www.w3.org/2000/svg">
<g id="MasterCard">
<g id="MasterCard_2">
<g id="Group">
<g id="Group_2">
<path id="Vector" d="M29.3632 23.8646H20.614V8.14075H29.3632V23.8646Z" fill="#FF5F00"/>
<g id="Group_3">
<path id="Vector_2" d="M21.1745 16.0013C21.1745 12.8117 22.6679 9.97044 24.9936 8.13943C23.2929 6.8005 21.1465 6.00134 18.8139 6.00134C13.2916 6.00134 8.81519 10.4784 8.81519 16.0013C8.81519 21.5243 13.2916 26.0013 18.8139 26.0013C21.1465 26.0013 23.2929 25.2022 24.9936 23.8633C22.6679 22.0322 21.1745 19.191 21.1745 16.0013Z" fill="#EB001B"/>
</g>
<g id="Group_4">
<path id="Vector_3" d="M41.163 16.0013C41.163 21.5243 36.6866 26.0013 31.1643 26.0013C28.8317 26.0013 26.6853 25.2022 24.984 23.8633C27.3103 22.0322 28.8037 19.191 28.8037 16.0013C28.8037 12.8117 27.3103 9.97044 24.984 8.13943C26.6853 6.8005 28.8317 6.00134 31.1643 6.00134C36.6866 6.00134 41.163 10.4784 41.163 16.0013Z" fill="#F79E1B"/>
</g>
</g>
<g id="Group_5">
<path id="Vector_4" d="M16.3392 16.0646C16.3392 15.6278 16.6254 15.269 17.0932 15.269C17.5401 15.269 17.8418 15.6123 17.8418 16.0646C17.8418 16.5169 17.5401 16.8602 17.0932 16.8602C16.6254 16.8602 16.3392 16.5014 16.3392 16.0646ZM18.3512 16.0646V14.822H17.8109V15.1238C17.6395 14.9 17.3794 14.7596 17.0259 14.7596C16.3291 14.7596 15.7828 15.3059 15.7828 16.0646C15.7828 16.8239 16.3291 17.3696 17.0259 17.3696C17.3794 17.3696 17.6395 17.2292 17.8109 17.0054V17.3071H18.3512V16.0646ZM36.611 16.0646C36.611 15.6278 36.8972 15.269 37.365 15.269C37.8125 15.269 38.1136 15.6123 38.1136 16.0646C38.1136 16.5169 37.8125 16.8602 37.365 16.8602C36.8972 16.8602 36.611 16.5014 36.611 16.0646ZM38.6236 16.0646V13.8241H38.0827V15.1238C37.9113 14.9 37.6512 14.7596 37.2977 14.7596C36.6009 14.7596 36.0546 15.3059 36.0546 16.0646C36.0546 16.8239 36.6009 17.3696 37.2977 17.3696C37.6512 17.3696 37.9113 17.2292 38.0827 17.0054V17.3071H38.6236V16.0646ZM25.0585 15.2434C25.4066 15.2434 25.6304 15.4618 25.6875 15.8462H24.3979C24.4557 15.4874 24.6735 15.2434 25.0585 15.2434ZM25.0692 14.7596C24.3408 14.7596 23.8314 15.2898 23.8314 16.0646C23.8314 16.8549 24.3616 17.3696 25.1055 17.3696C25.4798 17.3696 25.8226 17.2762 26.1243 17.0215L25.8595 16.621C25.6512 16.787 25.3858 16.8811 25.1364 16.8811C24.7883 16.8811 24.4711 16.7198 24.3932 16.2723H26.2386C26.2439 16.205 26.2493 16.1372 26.2493 16.0646C26.2439 15.2898 25.7655 14.7596 25.0692 14.7596ZM31.5938 16.0646C31.5938 15.6278 31.88 15.269 32.3478 15.269C32.7947 15.269 33.0964 15.6123 33.0964 16.0646C33.0964 16.5169 32.7947 16.8602 32.3478 16.8602C31.88 16.8602 31.5938 16.5014 31.5938 16.0646ZM33.6058 16.0646V14.822H33.0654V15.1238C32.8935 14.9 32.634 14.7596 32.2805 14.7596C31.5837 14.7596 31.0374 15.3059 31.0374 16.0646C31.0374 16.8239 31.5837 17.3696 32.2805 17.3696C32.634 17.3696 32.8935 17.2292 33.0654 17.0054V17.3071H33.6058V16.0646ZM28.5422 16.0646C28.5422 16.8186 29.067 17.3696 29.868 17.3696C30.2423 17.3696 30.4917 17.2863 30.7618 17.0733L30.5024 16.6365C30.2995 16.7823 30.0864 16.8602 29.852 16.8602C29.4205 16.8549 29.1033 16.543 29.1033 16.0646C29.1033 15.5861 29.4205 15.2743 29.852 15.269C30.0864 15.269 30.2995 15.3469 30.5024 15.4927L30.7618 15.0559C30.4917 14.8429 30.2423 14.7596 29.868 14.7596C29.067 14.7596 28.5422 15.3106 28.5422 16.0646ZM35.5089 14.7596C35.1971 14.7596 34.9941 14.9054 34.8537 15.1238V14.822H34.3181V17.3071H34.8591V15.914C34.8591 15.5028 35.0358 15.2743 35.3893 15.2743C35.4988 15.2743 35.613 15.2898 35.7273 15.3368L35.8939 14.8274C35.7743 14.7804 35.6184 14.7596 35.5089 14.7596ZM21.0238 15.0196C20.7637 14.8482 20.4055 14.7596 20.0103 14.7596C19.3807 14.7596 18.9755 15.0613 18.9755 15.5552C18.9755 15.9605 19.2772 16.2104 19.833 16.2883L20.0883 16.3246C20.3846 16.3663 20.5245 16.4443 20.5245 16.5847C20.5245 16.7769 20.3269 16.8864 19.958 16.8864C19.5836 16.8864 19.3135 16.7668 19.1314 16.6264L18.8767 17.0471C19.173 17.2655 19.5473 17.3696 19.9526 17.3696C20.6703 17.3696 21.0863 17.0316 21.0863 16.5585C21.0863 16.1217 20.759 15.8932 20.218 15.8152L19.9633 15.7784C19.7294 15.7474 19.542 15.701 19.542 15.5344C19.542 15.3523 19.7187 15.2434 20.0151 15.2434C20.3323 15.2434 20.6393 15.363 20.7899 15.4564L21.0238 15.0196ZM27.9959 14.7596C27.684 14.7596 27.4811 14.9054 27.3413 15.1238V14.822H26.8057V17.3071H27.346V15.914C27.346 15.5028 27.5228 15.2743 27.8762 15.2743C27.9857 15.2743 28.1 15.2898 28.2143 15.3368L28.3809 14.8274C28.2613 14.7804 28.1054 14.7596 27.9959 14.7596ZM23.3845 14.822H22.5008V14.0681H21.9545V14.822H21.4505V15.316H21.9545V16.4496C21.9545 17.0263 22.1782 17.3696 22.8174 17.3696C23.0518 17.3696 23.322 17.297 23.4934 17.1774L23.3375 16.7144C23.1762 16.8079 22.9995 16.8549 22.859 16.8549C22.5889 16.8549 22.5008 16.6882 22.5008 16.4389V15.316H23.3845V14.822ZM15.3049 17.3071V15.7474C15.3049 15.1601 14.9306 14.7649 14.3272 14.7596C14.01 14.7542 13.6827 14.853 13.4536 15.2017C13.2822 14.9262 13.0121 14.7596 12.6324 14.7596C12.367 14.7596 12.1075 14.8375 11.9046 15.1285V14.822H11.3636V17.3071H11.9093V15.9295C11.9093 15.4981 12.1486 15.269 12.5181 15.269C12.877 15.269 13.0585 15.5028 13.0585 15.9242V17.3071H13.6048V15.9295C13.6048 15.4981 13.8541 15.269 14.2129 15.269C14.5819 15.269 14.7586 15.5028 14.7586 15.9242V17.3071H15.3049Z" fill="white"/>
</g>
</g>
</g>
</g>
</svg>
