<svg width="50" height="32" viewBox="0 0 50 32" fill="none" xmlns="http://www.w3.org/2000/svg">
<g id="PayPal" clip-path="url(#clip0_1_6077)">
<g id="PayPal_2">
<rect id="Rectangle" width="50" height="32" rx="3" fill="#EDEDF0"/>
<g id="Group">
<g id="Group_2">
<path id="Vector" d="M14.8739 20.9H12.8012C12.6594 20.9 12.5387 21.0031 12.5166 21.1431L11.6783 26.458C11.6617 26.5629 11.7429 26.6574 11.8493 26.6574H12.8388C12.9806 26.6574 13.1012 26.5544 13.1234 26.4141L13.3494 24.9806C13.3713 24.8402 13.4922 24.7372 13.6337 24.7372H14.2899C15.6552 24.7372 16.4432 24.0765 16.649 22.7672C16.7417 22.1944 16.6529 21.7444 16.3847 21.4292C16.0901 21.0831 15.5676 20.9 14.8739 20.9ZM15.113 22.8412C14.9997 23.5849 14.4314 23.5849 13.8819 23.5849H13.5692L13.7886 22.1959C13.8016 22.112 13.8744 22.0502 13.9592 22.0502H14.1026C14.4769 22.0502 14.8299 22.0502 15.0124 22.2635C15.1212 22.3908 15.1545 22.5799 15.113 22.8412Z" fill="#253B80"/>
<path id="Vector_2" d="M21.0697 22.8166H20.0771C19.9926 22.8166 19.9195 22.8784 19.9065 22.9624L19.8625 23.24L19.7931 23.1394C19.5783 22.8275 19.0991 22.7233 18.6209 22.7233C17.524 22.7233 16.5873 23.554 16.4048 24.7193C16.31 25.3006 16.4448 25.8564 16.7746 26.244C17.077 26.6004 17.5098 26.7489 18.0247 26.7489C18.9085 26.7489 19.3985 26.1807 19.3985 26.1807L19.3543 26.4565C19.3376 26.5619 19.4188 26.6565 19.5246 26.6565H20.4187C20.5608 26.6565 20.6808 26.5535 20.7032 26.4131L21.2397 23.016C21.2567 22.9115 21.1757 22.8166 21.0697 22.8166ZM19.6861 24.7484C19.5904 25.3154 19.1403 25.6961 18.5663 25.6961C18.2781 25.6961 18.0478 25.6036 17.8999 25.4285C17.7532 25.2545 17.6974 25.0069 17.7441 24.7311C17.8335 24.1689 18.2911 23.7758 18.8563 23.7758C19.1382 23.7758 19.3673 23.8695 19.5182 24.0462C19.6695 24.2247 19.7295 24.4738 19.6861 24.7484Z" fill="#253B80"/>
<path id="Vector_3" d="M26.3557 22.8165H25.3583C25.2632 22.8165 25.1738 22.8638 25.1198 22.9429L23.7442 24.9692L23.1611 23.022C23.1244 22.9002 23.012 22.8165 22.8847 22.8165H21.9046C21.7855 22.8165 21.7027 22.9329 21.7406 23.045L22.8392 26.2691L21.8064 27.7272C21.7251 27.842 21.807 27.9999 21.9473 27.9999H22.9435C23.038 27.9999 23.1265 27.9539 23.1802 27.8763L26.4976 23.0878C26.577 22.9732 26.4955 22.8165 26.3557 22.8165Z" fill="#253B80"/>
<path id="Vector_4" d="M29.6578 20.8994H27.5848C27.4433 20.8994 27.3227 21.0025 27.3005 21.1425L26.4623 26.4574C26.4456 26.5623 26.5268 26.6568 26.6326 26.6568H27.6964C27.7952 26.6568 27.8797 26.5847 27.8952 26.4865L28.1331 24.9799C28.1549 24.8396 28.2758 24.7366 28.4174 24.7366H29.0732C30.4388 24.7366 31.2265 24.0759 31.4326 22.7666C31.5256 22.1938 31.4362 21.7438 31.168 21.4286C30.8737 21.0825 30.3515 20.8994 29.6578 20.8994ZM29.8969 22.8406C29.7839 23.5843 29.2156 23.5843 28.6659 23.5843H28.3534L28.5731 22.1953C28.5862 22.1114 28.6583 22.0496 28.7435 22.0496H28.8868C29.2608 22.0496 29.6142 22.0496 29.7966 22.2629C29.9054 22.3902 29.9385 22.5793 29.8969 22.8406Z" fill="#179BD7"/>
<path id="Vector_5" d="M35.8533 22.8166H34.8613C34.7762 22.8166 34.7037 22.8784 34.691 22.9624L34.6471 23.24L34.5774 23.1394C34.3625 22.8275 33.8836 22.7233 33.4054 22.7233C32.3086 22.7233 31.3721 23.554 31.1896 24.7193C31.0951 25.3006 31.2293 25.8564 31.5591 26.244C31.8622 26.6004 32.2943 26.7489 32.8092 26.7489C33.693 26.7489 34.1831 26.1807 34.1831 26.1807L34.1388 26.4565C34.1221 26.5619 34.2034 26.6565 34.3097 26.6565H35.2035C35.345 26.6565 35.4656 26.5535 35.4878 26.4131L36.0245 23.016C36.0409 22.9115 35.9597 22.8166 35.8533 22.8166ZM34.4698 24.7484C34.3746 25.3154 33.9239 25.6961 33.3499 25.6961C33.0623 25.6961 32.8314 25.6036 32.6835 25.4285C32.5368 25.2545 32.4816 25.0069 32.5277 24.7311C32.6177 24.1689 33.0747 23.7758 33.64 23.7758C33.9218 23.7758 34.1509 23.8695 34.3019 24.0462C34.4537 24.2247 34.5137 24.4738 34.4698 24.7484Z" fill="#179BD7"/>
<path id="Vector_6" d="M37.0234 21.0451L36.1727 26.4573C36.156 26.5622 36.2373 26.6568 36.343 26.6568H37.1983C37.3404 26.6568 37.4611 26.5537 37.4829 26.4134L38.3218 21.0988C38.3384 20.9939 38.2572 20.899 38.1514 20.899H37.1938C37.1092 20.8994 37.0365 20.9612 37.0234 21.0451Z" fill="#179BD7"/>
</g>
<g id="Group_3">
<path id="Vector_7" d="M23.0687 17.018L23.3022 15.5347L22.782 15.5226H20.298L22.0242 4.57694C22.0296 4.5439 22.047 4.51309 22.0725 4.49121C22.0979 4.46933 22.1305 4.45728 22.1644 4.45728H26.3528C27.7433 4.45728 28.7029 4.74662 29.2039 5.31773C29.4388 5.58564 29.5884 5.86561 29.6607 6.17372C29.7366 6.497 29.7379 6.88324 29.6638 7.35433L29.6585 7.38871V7.69056L29.8933 7.82362C30.0911 7.92856 30.2483 8.04867 30.3689 8.1862C30.5698 8.41527 30.6998 8.7064 30.7547 9.05156C30.8114 9.40655 30.7926 9.82896 30.6998 10.3072C30.5926 10.8573 30.4193 11.3364 30.1854 11.7285C29.9701 12.0897 29.696 12.3893 29.3705 12.6215C29.0597 12.8421 28.6904 13.0096 28.2729 13.1167C27.8683 13.2221 27.4071 13.2752 26.9012 13.2752H26.5752C26.3421 13.2752 26.1157 13.3592 25.938 13.5097C25.7599 13.6633 25.642 13.8731 25.6058 14.1026L25.5813 14.2362L25.1687 16.8506L25.1499 16.9466C25.145 16.9769 25.1365 16.9921 25.124 17.0024C25.1128 17.0118 25.0968 17.018 25.0811 17.018H23.0687Z" fill="#253B80"/>
<path id="Vector_8" d="M30.1155 7.42346C30.103 7.50339 30.0887 7.5851 30.0727 7.66905C29.5203 10.5049 27.6306 11.4846 25.2172 11.4846H23.9883C23.6932 11.4846 23.4445 11.6989 23.3985 11.9901L22.7693 15.9802L22.5912 17.1113C22.5612 17.3024 22.7086 17.4747 22.9015 17.4747H25.081C25.3391 17.4747 25.5583 17.2872 25.5989 17.0327L25.6204 16.9219L26.0307 14.3178L26.0571 14.1749C26.0973 13.9195 26.3169 13.732 26.575 13.732H26.901C29.0126 13.732 30.6657 12.8746 31.1488 10.3937C31.3506 9.35736 31.2461 8.49199 30.7121 7.88338C30.5504 7.69986 30.35 7.5476 30.1155 7.42346Z" fill="#179BD7"/>
<path id="Vector_9" d="M29.5378 7.19313C29.4534 7.16857 29.3664 7.14624 29.2771 7.12615C29.1873 7.1065 29.0953 7.08909 29.0007 7.07391C28.6693 7.02032 28.3063 6.99487 27.9174 6.99487H24.6345C24.5537 6.99487 24.4769 7.01318 24.4082 7.04622C24.2568 7.11901 24.1443 7.26234 24.117 7.43783L23.4187 11.8611L23.3986 11.9901C23.4446 11.699 23.6933 11.4847 23.9884 11.4847H25.2173C27.6307 11.4847 29.5204 10.5046 30.0728 7.66913C30.0893 7.58518 30.1031 7.50346 30.1156 7.42354C29.9759 7.34941 29.8245 7.28601 29.6615 7.23198C29.6213 7.21858 29.5798 7.20563 29.5378 7.19313Z" fill="#222D65"/>
<path id="Vector_10" d="M24.117 7.43779C24.1442 7.26231 24.2567 7.11897 24.4081 7.04664C24.4773 7.01359 24.5537 6.99529 24.6345 6.99529H27.9173C28.3063 6.99529 28.6693 7.02074 29.0006 7.07432C29.0953 7.0895 29.1873 7.10692 29.277 7.12656C29.3663 7.14666 29.4534 7.16898 29.5378 7.19354C29.5798 7.20605 29.6213 7.21899 29.6619 7.23194C29.8249 7.28597 29.9763 7.34983 30.116 7.4235C30.2804 6.37551 30.1147 5.66196 29.5481 5.01584C28.9234 4.30453 27.7959 4 26.3532 4H22.1648C21.8701 4 21.6187 4.21433 21.5731 4.50591L19.8286 15.5641C19.7942 15.7829 19.963 15.9802 20.1835 15.9802H22.7694L23.4186 11.8611L24.117 7.43779Z" fill="#253B80"/>
</g>
</g>
</g>
</g>
<defs>
<clipPath id="clip0_1_6077">
<rect width="50" height="32" fill="white"/>
</clipPath>
</defs>
</svg>
