<svg width="50" height="32" viewBox="0 0 50 32" fill="none" xmlns="http://www.w3.org/2000/svg">
<g id="Stripe" clip-path="url(#clip0_1_6073)">
<g id="Stripe_2">
<rect id="Rectangle" width="50" height="32" rx="3" fill="#EDEDF0"/>
<path id="Vector" d="M9.39601 14.4726C9.39601 14.1132 9.75541 13.9335 10.2346 13.9335C10.9534 13.9335 11.9118 14.1731 12.6306 14.5924V12.3162C11.8519 12.0167 11.0133 11.837 10.2346 11.837C8.3178 11.837 7 12.8553 7 14.5924C7 17.228 10.594 16.7488 10.594 17.9468C10.594 18.3661 10.2346 18.5458 9.69551 18.5458C8.91681 18.5458 7.8985 18.1864 7.1198 17.7671V20.0433C8.0183 20.4027 8.85691 20.5824 9.69551 20.5824C11.6722 20.5824 12.99 19.624 12.99 17.8869C13.0499 15.0117 9.39601 15.5508 9.39601 14.4726ZM24.3111 20.4027H26.7072V12.0167H24.3111V20.4027ZM16.1647 10.04L13.8286 10.5192V18.0666C13.8286 19.5042 14.9068 20.5225 16.2845 20.5225C17.0632 20.5225 17.6622 20.4027 17.9617 20.223V18.3062C17.6622 18.426 16.1647 18.8453 16.1647 17.4676V14.0533H17.9617V12.0167H16.1647V10.04ZM21.1963 12.7355L21.1364 12.0167H18.98V20.4027H21.376V14.7122C21.975 13.9934 22.9933 14.1132 23.2928 14.233V12.0167C22.9933 11.8969 21.7953 11.7172 21.1963 12.7355ZM24.3111 11.3578L26.7072 10.8786V8.90186L24.3111 9.38106V11.3578ZM43 16.2097C43 13.7538 41.802 11.837 39.5258 11.837C37.2496 11.837 35.8719 13.7538 35.8719 16.2097C35.8719 19.0849 37.4892 20.5225 39.8253 20.5225C40.9634 20.5225 41.802 20.2829 42.4609 19.8636V18.0067C41.802 18.3661 41.0832 18.5458 40.1248 18.5458C39.1664 18.5458 38.3877 18.1864 38.2679 17.0483H42.9401C43 16.9285 43 16.4493 43 16.2097ZM38.2679 15.3112C38.2679 14.233 38.9268 13.8137 39.5258 13.8137C40.1248 13.8137 40.7238 14.233 40.7238 15.3112H38.2679ZM31.9784 11.837C31.02 11.837 30.4809 12.2563 30.1215 12.6157L30.0616 12.0167H27.9052V23.0982L30.3012 22.6789V19.9834C30.6606 20.223 31.1398 20.5824 31.9784 20.5824C33.7155 20.5824 35.2729 19.2047 35.2729 16.1498C35.213 13.3944 33.6556 11.837 31.9784 11.837ZM31.3794 18.426C30.8403 18.426 30.4809 18.2463 30.2413 17.9468V14.4127C30.4809 14.1132 30.8403 13.9335 31.3794 13.9335C32.2779 13.9335 32.8769 14.8919 32.8769 16.1498C32.8769 17.4676 32.2779 18.426 31.3794 18.426Z" fill="#6974DE"/>
</g>
</g>
<defs>
<clipPath id="clip0_1_6073">
<rect width="50" height="32" fill="white"/>
</clipPath>
</defs>
</svg>
