<svg width="50" height="32" viewBox="0 0 50 32" fill="none" xmlns="http://www.w3.org/2000/svg">
<g id="UnionPay" clip-path="url(#clip0_1_6189)">
<g id="UnionPay_2">
<rect id="Rectangle" width="50" height="32" rx="3" fill="#EDEDF0"/>
<g id="Group">
<path id="Vector" d="M15.2749 6H23.2553C24.3692 6 25.0621 6.90799 24.8022 8.02568L21.0868 23.9774C20.8246 25.0912 19.7093 26 18.5945 26H10.6149C9.50249 26 8.80807 25.0912 9.06794 23.9774L12.7849 8.02568C13.0448 6.90799 14.1596 6 15.2749 6Z" fill="#E21836"/>
<path id="Vector_2" d="M22.5912 6H31.7684C32.8822 6 32.3799 6.90799 32.1179 8.02568L28.4031 23.9774C28.1424 25.0912 28.2237 26 27.1076 26H17.9304C16.8143 26 16.1236 25.0912 16.3858 23.9774L20.1004 8.02568C20.3642 6.90799 21.4766 6 22.5912 6Z" fill="#00447C"/>
<path id="Vector_3" d="M31.4044 6H39.3848C40.5003 6 41.1932 6.90799 40.9311 8.02568L37.2163 23.9774C36.9541 25.0912 35.838 26 34.7226 26H26.746C25.6298 26 24.9376 25.0912 25.199 23.9774L28.9144 8.02568C29.1743 6.90799 30.2883 6 31.4044 6Z" fill="#007B84"/>
<path id="Vector_4" d="M17.3591 11.1121C16.5384 11.1205 16.296 11.1121 16.2186 11.0938C16.1889 11.2352 15.6351 13.7898 15.6335 13.7919C15.5143 14.3087 15.4275 14.6772 15.1328 14.915C14.9656 15.0533 14.7703 15.1201 14.5439 15.1201C14.1799 15.1201 13.9679 14.9394 13.9323 14.5966L13.9255 14.4789C13.9255 14.4789 14.0364 13.7867 14.0364 13.7828C14.0364 13.7828 14.6176 11.4548 14.7216 11.1471C14.7271 11.1296 14.7286 11.1205 14.73 11.1121C13.5987 11.122 13.3982 11.1121 13.3844 11.0938C13.3768 11.1189 13.3488 11.2632 13.3488 11.2632L12.7553 13.887L12.7043 14.1096L12.6057 14.8374C12.6057 15.0533 12.6481 15.2296 12.7325 15.3786C13.0029 15.8511 13.7742 15.9219 14.2105 15.9219C14.7726 15.9219 15.2999 15.8024 15.6563 15.5844C16.2748 15.2189 16.4367 14.6476 16.581 14.1399L16.6479 13.8794C16.6479 13.8794 17.2466 11.4616 17.3484 11.1471C17.3523 11.1296 17.3538 11.1205 17.3591 11.1121ZM19.3962 13.0626C19.2518 13.0626 18.9881 13.0976 18.7512 13.2137C18.6652 13.2579 18.5839 13.3088 18.4981 13.3596L18.5755 13.0801L18.5331 13.033C18.0307 13.1347 17.9182 13.1483 17.4541 13.2137L17.4152 13.2396C17.3613 13.6864 17.3135 14.0223 17.1137 14.9005C17.0377 15.2242 16.9587 15.551 16.8795 15.8739L16.9009 15.9149C17.3765 15.8898 17.5208 15.8898 17.9342 15.8966L17.9676 15.8603C18.0202 15.5913 18.027 15.5282 18.1433 14.9834C18.198 14.7251 18.3119 14.1575 18.3682 13.9554C18.4714 13.9075 18.5734 13.8605 18.6706 13.8605C18.9023 13.8605 18.8741 14.0626 18.8651 14.1431C18.8552 14.2783 18.7708 14.7198 18.6842 15.0989L18.6265 15.3436C18.5862 15.5243 18.542 15.7 18.5018 15.8791L18.5193 15.9149C18.9881 15.8898 19.131 15.8898 19.5314 15.8966L19.5784 15.8603C19.6508 15.4401 19.672 15.3277 19.8004 14.7159L19.8649 14.4349C19.9904 13.8848 20.0534 13.6058 19.9585 13.3787C19.8581 13.124 19.6173 13.0626 19.3962 13.0626ZM21.6718 13.6385C21.4227 13.6864 21.2637 13.7183 21.1058 13.7389C20.9492 13.764 20.7965 13.7867 20.5557 13.8202L20.5366 13.8375L20.5191 13.8513C20.494 14.0306 20.4765 14.1857 20.4433 14.3679C20.4151 14.5564 20.3717 14.7706 20.3011 15.0783C20.2464 15.3139 20.2182 15.3959 20.1871 15.4788C20.1568 15.5617 20.1233 15.6422 20.0618 15.8739L20.0762 15.8953L20.0883 15.9149C20.3133 15.9042 20.4606 15.8966 20.6119 15.8953C20.7631 15.8898 20.9196 15.8953 21.162 15.8966L21.1832 15.8793L21.206 15.8603C21.241 15.6513 21.2462 15.5951 21.2676 15.4932C21.2888 15.3839 21.3254 15.2326 21.4151 14.8284C21.4575 14.6385 21.5047 14.4492 21.5487 14.2555C21.5944 14.0625 21.6423 13.8725 21.6878 13.6827L21.681 13.6597L21.6718 13.6385ZM21.6771 12.862C21.4507 12.7283 21.0533 12.7707 20.7859 12.9553C20.5192 13.1362 20.4888 13.393 20.7145 13.5284C20.937 13.6583 21.336 13.6196 21.6011 13.4334C21.8672 13.2487 21.9004 12.9942 21.6771 12.862ZM23.0464 15.9568C23.5045 15.9568 23.9741 15.8305 24.3275 15.4559C24.5994 15.1521 24.7241 14.7 24.7673 14.5139C24.9079 13.8969 24.7984 13.6088 24.6609 13.4333C24.452 13.1659 24.0828 13.0801 23.6998 13.0801C23.4695 13.0801 22.921 13.1029 22.4924 13.4979C22.1847 13.7829 22.0425 14.1696 21.9568 14.5403C21.8702 14.9181 21.7706 15.5981 22.396 15.8512C22.5889 15.934 22.8671 15.9568 23.0464 15.9568ZM23.0106 14.5685C23.1163 14.1013 23.2409 13.7092 23.5592 13.7092C23.8085 13.7092 23.8266 14.0009 23.7158 14.4697C23.6959 14.5738 23.6049 14.9607 23.4817 15.1254C23.3958 15.247 23.294 15.3207 23.1816 15.3207C23.1482 15.3207 22.9492 15.3207 22.9461 15.0253C22.9445 14.8794 22.9743 14.7304 23.0106 14.5685ZM25.9124 15.8967L25.9482 15.8603C25.999 15.5913 26.0073 15.5281 26.1198 14.9835C26.176 14.7251 26.2923 14.1575 26.3469 13.9554C26.4504 13.9074 26.5506 13.8603 26.651 13.8603C26.8811 13.8603 26.8531 14.0624 26.8439 14.143C26.8356 14.2783 26.7512 14.7197 26.663 15.0988L26.6084 15.3435C26.5666 15.5244 26.521 15.6999 26.4808 15.8792L26.4983 15.915C26.9686 15.8899 27.1061 15.8899 27.5088 15.8967L27.5574 15.8603C27.628 15.44 27.6471 15.3276 27.7794 14.716L27.8424 14.4347C27.9684 13.8846 28.0322 13.6059 27.9389 13.3787C27.8356 13.1241 27.5932 13.0626 27.3752 13.0626C27.2306 13.0626 26.9655 13.0974 26.7299 13.2138C26.6457 13.2579 26.5613 13.3087 26.4784 13.3596L26.5506 13.0801L26.5119 13.0329C26.0097 13.1348 25.8949 13.1484 25.4314 13.2138L25.3958 13.2396C25.3396 13.6864 25.2938 14.0222 25.0941 14.9006C25.018 15.2243 24.9391 15.5511 24.8601 15.8739L24.8813 15.915C25.3576 15.8899 25.4998 15.8899 25.9124 15.8967ZM29.3681 15.9149C29.3976 15.7706 29.5733 14.9151 29.5748 14.9151C29.5748 14.9151 29.7244 14.2874 29.7335 14.2646C29.7335 14.2646 29.7806 14.1993 29.8277 14.1734H29.8969C30.5503 14.1734 31.2881 14.1734 31.8664 13.748C32.2599 13.4562 32.5289 13.0254 32.6489 12.5017C32.6801 12.3734 32.703 12.2207 32.703 12.068C32.703 11.8674 32.6627 11.669 32.5464 11.514C32.2515 11.1014 31.6643 11.0938 30.9864 11.0907C30.9843 11.0907 30.6522 11.0938 30.6522 11.0938C29.7845 11.1045 29.4365 11.1014 29.2936 11.0839C29.2815 11.1471 29.2587 11.2596 29.2587 11.2596C29.2587 11.2596 28.9479 12.7001 28.9479 12.7025C28.9479 12.7025 28.2041 15.7653 28.1691 15.9096C28.9267 15.9005 29.2373 15.9005 29.3681 15.9149ZM29.944 13.3559C29.944 13.3559 30.2745 11.9182 30.2729 11.9236L30.2836 11.8499L30.2883 11.7937L30.4204 11.8073C30.4204 11.8073 31.102 11.8659 31.1179 11.8674C31.3869 11.9715 31.4978 12.2397 31.4204 12.5899C31.3498 12.9098 31.1422 13.1788 30.8755 13.3088C30.6559 13.4189 30.3869 13.428 30.1097 13.428H29.9304L29.944 13.3559ZM32.0017 14.5952C31.9143 14.9675 31.814 15.6475 32.4362 15.8899C32.6346 15.9743 32.8124 15.9994 32.9931 15.9902C33.1839 15.9799 33.3607 15.8842 33.5245 15.7465C33.5097 15.8031 33.495 15.8597 33.4802 15.9165L33.5084 15.9529C33.956 15.934 34.0948 15.934 34.5798 15.9377L34.6237 15.9042C34.6945 15.488 34.7612 15.0838 34.9453 14.2874C35.0349 13.906 35.1244 13.5283 35.2164 13.1484L35.202 13.1065C34.7013 13.1993 34.5675 13.2192 34.0859 13.2874L34.0493 13.3172C34.0445 13.3559 34.0394 13.3931 34.0347 13.4302C33.9598 13.3092 33.8513 13.2059 33.6838 13.1416C33.4697 13.0573 32.9667 13.1659 32.5342 13.5596C32.2304 13.8406 32.0845 14.2258 32.0017 14.5952ZM33.0532 14.6179C33.1604 14.1591 33.2835 13.7708 33.6025 13.7708C33.8042 13.7708 33.9104 13.957 33.8888 14.2744C33.8717 14.3536 33.8533 14.437 33.8313 14.5314C33.7994 14.6677 33.7647 14.8029 33.7311 14.9383C33.6969 15.0309 33.657 15.1182 33.6132 15.1764C33.5311 15.2927 33.3358 15.3649 33.2234 15.3649C33.1915 15.3649 32.9947 15.3649 32.9879 15.0746C32.9863 14.9301 33.0161 14.7813 33.0532 14.6179ZM38.5445 13.1028L38.5058 13.0587C38.0103 13.159 37.9207 13.175 37.4655 13.2365L37.432 13.2699C37.4305 13.2754 37.4291 13.2837 37.4268 13.2913L37.4252 13.2837C37.0864 14.0655 37.0963 13.8968 36.8205 14.5123C36.8189 14.4843 36.8189 14.4668 36.8174 14.437L36.7483 13.1028L36.7049 13.0587C36.186 13.159 36.1737 13.175 35.6944 13.2365L35.6571 13.2699C35.6518 13.2859 35.6518 13.3034 35.6487 13.3224L35.6518 13.3292C35.7117 13.6354 35.6973 13.5671 35.7575 14.0503C35.7855 14.2874 35.8228 14.5259 35.8508 14.7601C35.8981 15.152 35.9245 15.345 35.9823 15.9431C35.6586 16.4773 35.582 16.6794 35.2704 17.1482L35.2725 17.1528L35.0531 17.4998C35.028 17.5364 35.0053 17.5615 34.9734 17.5722C34.9384 17.5895 34.8928 17.5926 34.8296 17.5926H34.708L34.5273 18.1937L35.1473 18.2044C35.5112 18.2028 35.7399 18.0326 35.8631 17.8039L36.2529 17.1359H36.2467L36.2877 17.0888C36.5499 16.5243 38.5445 13.1028 38.5445 13.1028ZM32.0016 20.9967H31.7387L32.712 17.7773H33.0349L33.1374 17.4457L33.1473 17.8145C33.1353 18.0424 33.3146 18.2445 33.7857 18.2111H34.3306L34.5181 17.5912H34.3131C34.1952 17.5912 34.1405 17.5614 34.1473 17.4976L34.1374 17.1224H33.1285V17.1243C32.8023 17.1311 31.8281 17.1556 31.6309 17.2082C31.3922 17.2696 31.1407 17.4505 31.1407 17.4505L31.2395 17.1185H30.2958L30.0991 17.7773L29.1127 21.0459H28.9213L28.7336 21.6614H30.6134L30.5504 21.8666H31.4767L31.5381 21.6614H31.798L32.0016 20.9967ZM31.2304 18.4315C31.0793 18.4733 30.798 18.6001 30.798 18.6001L31.0481 17.7773H31.798L31.6171 18.3768C31.6171 18.3768 31.3854 18.3904 31.2304 18.4315ZM31.2448 19.6069C31.2448 19.6069 31.0092 19.6365 30.8542 19.6715C30.7015 19.7178 30.4152 19.8637 30.4152 19.8637L30.6735 19.0074H31.4272L31.2448 19.6069ZM30.8246 21.0043H30.0725L30.2905 20.2817H31.0404L30.8246 21.0043ZM32.6361 19.0074H33.7203L33.5645 19.512H32.4659L32.3009 20.0636H33.2622L32.5343 21.0885C32.4834 21.1638 32.4377 21.1905 32.3869 21.2117C32.3359 21.2375 32.269 21.2679 32.1916 21.2679H31.9249L31.7417 21.872H32.4392C32.8018 21.872 33.016 21.7071 33.1741 21.4906L33.6732 20.8075L33.7804 21.5011C33.8032 21.631 33.8965 21.7071 33.9598 21.7367C34.0296 21.7717 34.1017 21.8318 34.2037 21.8407C34.313 21.8454 34.392 21.8491 34.4445 21.8491H34.7872L34.993 21.173H34.8578C34.7802 21.173 34.6466 21.1599 34.6238 21.1356C34.6011 21.106 34.6011 21.0605 34.5888 20.9913L34.4801 20.2961H34.0348L34.2301 20.0636H35.3266L35.4952 19.512H34.4801L34.6382 19.0074H35.6503L35.838 18.3852H32.8207L32.6361 19.0074ZM23.4787 21.1448L23.7317 20.3029H24.7718L24.9619 19.6768H23.9208L24.0797 19.1586H25.097L25.2855 18.5523H22.7401L22.5555 19.1586H23.1338L22.9796 19.6768H22.3997L22.2075 20.3136H22.7856L22.4483 21.4274C22.4028 21.5749 22.4697 21.6311 22.5121 21.6996C22.5555 21.7663 22.5995 21.8104 22.6983 21.8355C22.8002 21.8583 22.87 21.8719 22.965 21.8719H24.1375L24.3464 21.1783L23.8267 21.2496C23.7263 21.2496 23.4483 21.2376 23.4787 21.1448ZM23.598 17.1147L23.3344 17.5911C23.278 17.6951 23.2272 17.7597 23.1815 17.7895C23.1413 17.8146 23.0615 17.8251 22.946 17.8251H22.8084L22.6246 18.4345H23.0813C23.3009 18.4345 23.4696 18.3539 23.5501 18.3137C23.6367 18.2674 23.6594 18.2938 23.7264 18.2293L23.8806 18.0956H25.3068L25.496 17.4611H24.4521L24.6343 17.1147H23.598ZM25.7035 21.157C25.6792 21.122 25.6967 21.0604 25.7338 20.932L26.1236 19.6418H27.5103C27.7124 19.6389 27.8583 19.6365 27.9532 19.6297C28.0552 19.619 28.166 19.5826 28.2868 19.5173C28.4115 19.4488 28.4753 19.3766 28.5292 19.2938C28.5893 19.2111 28.6858 19.0302 28.7686 18.7513L29.2586 17.1185L27.8196 17.1269C27.8196 17.1269 27.3765 17.1922 27.1814 17.2644C26.9845 17.3449 26.7033 17.5698 26.7033 17.5698L26.8332 17.1222H25.9443L24.6998 21.2496C24.6556 21.4099 24.6261 21.5262 24.6193 21.5961C24.6169 21.6713 24.7142 21.7458 24.7772 21.8021C24.8517 21.8583 24.9618 21.8491 25.0674 21.8583C25.1785 21.8666 25.3364 21.8719 25.5545 21.8719H26.2376L26.4473 21.1638L25.8357 21.2216C25.7704 21.2216 25.7231 21.1866 25.7035 21.157ZM26.3751 18.7703H27.8317L27.7391 19.0606C27.726 19.0674 27.6949 19.0462 27.5467 19.0637H26.2855L26.3751 18.7703ZM26.6669 17.797H28.1357L28.0301 18.1465C28.0301 18.1465 27.3378 18.1397 27.2269 18.1602C26.7391 18.2446 26.4541 18.5052 26.4541 18.5052L26.6669 17.797ZM27.7717 20.0324C27.7596 20.0758 27.7406 20.1022 27.7139 20.1221C27.6843 20.1411 27.6365 20.148 27.5651 20.148H27.3576L27.3698 19.7945H26.5065L26.4715 21.5224C26.4702 21.6471 26.4822 21.7192 26.5735 21.777C26.6647 21.8492 26.9458 21.8583 27.3241 21.8583H27.865L28.0603 21.2116L27.5894 21.2374L27.4328 21.2466C27.4114 21.2374 27.391 21.2291 27.3682 21.2063C27.3484 21.1867 27.315 21.1987 27.3204 21.074L27.3241 20.6311L27.818 20.6107C28.0846 20.6107 28.1986 20.524 28.2959 20.4413C28.3887 20.3621 28.419 20.2711 28.454 20.148L28.5369 19.7558H27.8582L27.7717 20.0324Z" fill="#FEFEFE"/>
</g>
</g>
</g>
<defs>
<clipPath id="clip0_1_6189">
<rect width="50" height="32" fill="white"/>
</clipPath>
</defs>
</svg>
