<svg width="50" height="32" viewBox="0 0 50 32" fill="none" xmlns="http://www.w3.org/2000/svg">
<g id="Visa" clip-path="url(#clip0_1_6197)">
<g id="Visa_2">
<rect id="Rectangle" width="50" height="32" rx="3" fill="#EDEDF0"/>
<g id="Group">
<path id="polygon9" d="M22.4667 21.5354H19.3884L21.3138 10.4999H24.3919L22.4667 21.5354Z" fill="#00579F"/>
<path id="path11" d="M33.6256 10.7698C33.0184 10.5465 32.0554 10.3 30.8646 10.3C27.8247 10.3 25.684 11.8026 25.6709 13.9509C25.6457 15.5359 27.2036 16.4163 28.3688 16.9448C29.5597 17.4848 29.9645 17.8373 29.9645 18.3187C29.9524 19.058 29.0022 19.3988 28.1159 19.3988C26.8869 19.3988 26.2284 19.2231 25.2277 18.8118L24.8224 18.6354L24.3916 21.1127C25.1136 21.4176 26.4437 21.6881 27.8247 21.7C31.0546 21.7 33.1574 20.2206 33.1823 17.9312C33.1946 16.675 32.372 15.7124 30.5985 14.9258C29.5218 14.4209 28.8625 14.0804 28.8625 13.5638C28.8751 13.0941 29.4201 12.6131 30.6355 12.6131C31.6362 12.5895 32.3715 12.8125 32.9285 13.0356L33.2069 13.1528L33.6256 10.7698Z" fill="#00579F"/>
<path id="path13" d="M37.7169 17.6259C37.9704 16.9919 38.9459 14.5382 38.9459 14.5382C38.9331 14.5618 39.1989 13.8926 39.3509 13.4817L39.566 14.4326C39.566 14.4326 40.149 17.0741 40.2756 17.6259C39.7945 17.6259 38.3249 17.6259 37.7169 17.6259ZM41.5167 10.4999H39.1356C38.4014 10.4999 37.8435 10.6993 37.5267 11.4155L32.9543 21.5352H36.1843C36.1843 21.5352 36.716 20.1732 36.8303 19.8798C37.1847 19.8798 40.3267 19.8798 40.7826 19.8798C40.8709 20.2673 41.1499 21.5352 41.1499 21.5352H44L41.5167 10.4999Z" fill="#00579F"/>
<path id="path15" d="M16.8173 10.4999L13.8026 18.025L13.4732 16.4988C12.9158 14.7378 11.1679 12.8245 9.21729 11.8732L11.9786 21.5237H15.2338L20.0723 10.4999H16.8173Z" fill="#00579F"/>
<path id="path17" d="M11.0033 10.4999H6.05067L6 10.7229C9.86336 11.6386 12.422 13.8461 13.4732 16.4993L12.3966 11.4275C12.2193 10.7227 11.6746 10.5231 11.0033 10.4999Z" fill="#FAA61A"/>
</g>
</g>
</g>
<defs>
<clipPath id="clip0_1_6197">
<rect width="50" height="32" fill="white"/>
</clipPath>
</defs>
</svg>
